<svg width="420" height="509" viewBox="0 0 420 509" fill="none" xmlns="http://www.w3.org/2000/svg">
<path fill-rule="evenodd" clip-rule="evenodd" d="M193.421 65.6009C277.648 64.3985 336.332 102.336 369.474 179.415C386.441 231.968 380.125 281.498 350.526 328.005C340.599 341.634 330.074 354.806 318.947 367.523C282.609 404.167 246.032 440.524 209.211 476.595C164.978 433.628 121.556 389.894 78.9474 345.393C33.0622 286.523 26.2202 223.293 58.4211 155.703C88.8943 103.856 133.894 73.8214 193.421 65.6009Z" fill="#EA6B50"/>
<path fill-rule="evenodd" clip-rule="evenodd" d="M187.105 105.12C256.033 99.9564 304.191 128.937 331.579 192.061C349.088 258.395 329.351 310.296 272.368 347.764C211.781 376.568 157.833 367.348 110.526 320.101C70.8624 268.112 68.2307 214.366 102.632 158.865C124.178 130.309 152.336 112.394 187.105 105.12Z" fill="#FDFDFE"/>
<path fill-rule="evenodd" clip-rule="evenodd" d="M163.421 184.157C205.794 182.056 248.425 182.056 291.316 184.157C291.12 185.116 290.594 185.643 289.737 185.738C247.903 184.16 205.798 183.634 163.421 184.157Z" fill="#C1E9FF"/>
<path fill-rule="evenodd" clip-rule="evenodd" d="M163.421 184.157C205.798 183.634 247.903 184.16 289.737 185.738C287.103 193.123 284.471 200.499 281.842 207.868C239.465 208.391 197.361 207.865 155.526 206.287C157.336 198.482 159.968 191.104 163.421 184.157Z" fill="#03AAFF"/>
<path fill-rule="evenodd" clip-rule="evenodd" d="M155.526 206.287C197.361 207.865 239.465 208.391 281.842 207.868C239.469 209.969 196.838 209.969 153.947 207.868C154.143 206.908 154.669 206.382 155.526 206.287Z" fill="#39BCFF"/>
<path fill-rule="evenodd" clip-rule="evenodd" d="M267.632 245.806C225.254 246.329 183.15 245.803 141.316 244.225C143.168 236.818 145.799 229.704 149.211 222.885C191.842 221.831 234.474 221.831 277.105 222.885C273.788 230.481 270.63 238.12 267.632 245.806Z" fill="#03AAFF"/>
<path fill-rule="evenodd" clip-rule="evenodd" d="M141.316 244.225C183.15 245.803 225.254 246.329 267.632 245.806C225.259 247.907 182.627 247.907 139.737 245.806C139.932 244.846 140.458 244.32 141.316 244.225Z" fill="#37BBFF"/>
<path fill-rule="evenodd" clip-rule="evenodd" d="M135 260.033C177.635 259.769 220.266 260.033 262.895 260.823C259.462 268.758 256.832 276.926 255 285.325C212.368 285.325 169.737 285.325 127.105 285.325C129.105 276.686 131.736 268.254 135 260.033Z" fill="#08ABFF"/>
</svg>
