<svg width="420" height="509" viewBox="0 0 420 509" fill="none" xmlns="http://www.w3.org/2000/svg">
  <path fill-rule="evenodd" clip-rule="evenodd"
    d="M193.421 65.6009C277.648 64.3985 336.332 102.336 369.474 179.415C386.441 231.968 380.125 281.498 350.526 328.005C340.599 341.634 330.074 354.806 318.947 367.523C282.609 404.167 246.032 440.524 209.211 476.595C164.978 433.628 121.556 389.894 78.9474 345.393C33.0622 286.523 26.2202 223.293 58.4211 155.703C88.8943 103.856 133.894 73.8214 193.421 65.6009Z"
    fill="#95311B" />
  <path fill-rule="evenodd" clip-rule="evenodd"
    d="M187.105 105.12C256.033 99.9564 304.191 128.937 331.579 192.061C349.088 258.395 329.351 310.296 272.368 347.764C211.781 376.568 157.833 367.348 110.526 320.101C70.8624 268.112 68.2307 214.366 102.632 158.865C124.178 130.309 152.336 112.394 187.105 105.12Z"
    fill="#FDFDFE" />
</svg>